# 3ds Max Wavefront OBJ Exporter v0.97b - (c)2007 guruware
# 创建的文件:17.09.2016 19:44:06

mtllib 茶几\茶几.mtl

#
# object Box002
#

v  -464.3470 201.2469 302.4507
v  -464.3470 201.2469 -297.5492
v  535.6528 201.2469 -297.5492
v  535.6528 201.2469 302.4507
v  -464.3470 221.2469 302.4507
v  535.6528 221.2469 302.4507
v  535.6528 221.2469 -297.5492
v  -464.3470 221.2469 -297.5492
# 8 vertices

vn 0.0000 -1.0000 -0.0000
vn 0.0000 1.0000 -0.0000
vn 0.0000 0.0000 1.0000
vn 1.0000 0.0000 -0.0000
vn 0.0000 0.0000 -1.0000
vn -1.0000 0.0000 -0.0000
# 6 vertex normals

vt 1.0000 0.0000 0.0000
vt 1.0000 1.0000 0.0000
vt 0.0000 1.0000 0.0000
vt 0.0000 0.0000 0.0000
# 4 texture coords

g Box002
usemtl 01___Default
s 2
f 1/1/1 2/2/1 3/3/1 4/4/1 
s 4
f 5/4/2 6/1/2 7/2/2 8/3/2 
s 8
f 1/4/3 4/1/3 6/2/3 5/3/3 
s 16
f 4/4/4 3/1/4 7/2/4 6/3/4 
s 32
f 3/4/5 2/1/5 8/2/5 7/3/5 
s 64
f 2/4/6 1/1/6 5/2/6 8/3/6 
# 6 polygons

#
# object Line001
#

v  -444.3470 401.2469 -297.5492
v  -444.3470 21.2469 -297.5492
v  -464.3470 21.2469 -297.5492
v  -464.3470 401.2469 -297.5492
v  -444.3470 16.6642 -297.0204
v  -464.3470 16.6642 -297.0204
v  -444.3470 12.4558 -295.5146
v  -464.3470 12.4558 -295.5146
v  -444.3470 8.7421 -293.1523
v  -464.3470 8.7421 -293.1523
v  -444.3470 5.6438 -290.0540
v  -464.3470 5.6438 -290.0540
v  -444.3470 3.2815 -286.3403
v  -464.3470 3.2815 -286.3403
v  -444.3470 1.7756 -282.1319
v  -464.3470 1.7756 -282.1319
v  -444.3470 1.2469 -277.5492
v  -464.3470 1.2469 -277.5492
v  -444.3470 1.2469 282.4508
v  -464.3470 1.2469 282.4508
v  -444.3470 1.7756 287.0335
v  -464.3470 1.7756 287.0335
v  -444.3470 3.2815 291.2419
v  -464.3470 3.2815 291.2419
v  -444.3470 5.6438 294.9555
v  -464.3470 5.6438 294.9555
v  -444.3471 8.7421 298.0538
v  -464.3470 8.7421 298.0538
v  -444.3471 12.4558 300.4162
v  -464.3470 12.4558 300.4162
v  -444.3471 16.6642 301.9220
v  -464.3470 16.6642 301.9220
v  -444.3471 21.2469 302.4507
v  -464.3471 21.2469 302.4507
v  -444.3471 401.2469 302.4507
v  -464.3471 401.2469 302.4507
v  -444.3471 401.2469 282.4507
v  -464.3471 401.2469 282.4507
v  -444.3471 41.2469 282.4507
v  -464.3471 41.2469 282.4507
v  -444.3471 36.6642 281.9220
v  -464.3470 36.6642 281.9220
v  -444.3471 32.4557 280.4162
v  -464.3470 32.4557 280.4162
v  -444.3471 28.7421 278.0538
v  -464.3470 28.7421 278.0538
v  -444.3470 25.6438 274.9555
v  -464.3470 25.6438 274.9555
v  -444.3470 23.2815 271.2419
v  -464.3470 23.2815 271.2419
v  -444.3470 21.7756 267.0334
v  -464.3470 21.7756 267.0334
v  -444.3470 21.2469 262.4507
v  -464.3470 21.2469 262.4507
v  -444.3470 21.2469 -257.5492
v  -464.3470 21.2469 -257.5492
v  -444.3470 21.7756 -262.1319
v  -464.3470 21.7756 -262.1319
v  -444.3470 23.2814 -266.3404
v  -464.3470 23.2814 -266.3404
v  -444.3470 25.6438 -270.0540
v  -464.3470 25.6438 -270.0540
v  -444.3470 28.7421 -273.1523
v  -464.3470 28.7421 -273.1523
v  -444.3470 32.4558 -275.5146
v  -464.3470 32.4558 -275.5146
v  -444.3470 36.6642 -277.0205
v  -464.3470 36.6642 -277.0205
v  -444.3470 41.2469 -277.5492
v  -464.3470 41.2469 -277.5492
v  -444.3470 401.2469 -277.5492
v  -464.3470 401.2469 -277.5492
# 72 vertices

vn 0.0000 0.0000 -1.0000
vn 0.0000 -0.0574 -0.9984
vn 0.0000 -0.2272 -0.9738
vn 0.0000 -0.4395 -0.8982
vn 0.0000 -0.6257 -0.7801
vn 0.0000 -0.7801 -0.6257
vn 0.0000 -0.8982 -0.4395
vn 0.0000 -0.9738 -0.2272
vn 0.0000 -0.9984 -0.0574
vn 0.0000 -0.9984 0.0574
vn 0.0000 -0.9738 0.2272
vn 0.0000 -0.8982 0.4395
vn 0.0000 -0.7801 0.6257
vn -0.0000 -0.6257 0.7801
vn -0.0000 -0.4395 0.8982
vn -0.0000 -0.2272 0.9738
vn -0.0000 -0.0574 0.9984
vn -0.0000 0.0000 1.0000
vn -0.0000 1.0000 -0.0000
vn 0.0000 0.0574 -0.9984
vn 0.0000 0.2272 -0.9738
vn 0.0000 0.4395 -0.8982
vn 0.0000 0.6257 -0.7801
vn -0.0000 0.7801 -0.6257
vn -0.0000 0.8982 -0.4395
vn -0.0000 0.9738 -0.2272
vn -0.0000 0.9984 -0.0574
vn -0.0000 0.9984 0.0574
vn -0.0000 0.9738 0.2272
vn -0.0000 0.8982 0.4395
vn -0.0000 0.7801 0.6257
vn -0.0000 0.6257 0.7801
vn -0.0000 0.4395 0.8982
vn -0.0000 0.2272 0.9738
vn -0.0000 0.0574 0.9984
vn 1.0000 0.0000 0.0000
vn -1.0000 -0.0000 -0.0000
# 37 vertex normals

g Line001
usemtl 02___Default
s 1
f 9//7 10//8 11//8 12//7 
s 3
f 10//8 13//9 14//9 11//8 
s 2
f 13//9 15//10 16//10 14//9 
f 15//10 17//11 18//11 16//10 
f 17//11 19//12 20//12 18//11 
f 19//12 21//13 22//13 20//12 
f 21//13 23//14 24//14 22//13 
f 23//14 25//15 26//15 24//14 
f 25//15 27//16 28//16 26//15 
f 27//16 29//17 30//17 28//16 
f 29//17 31//18 32//18 30//17 
f 31//18 33//19 34//19 32//18 
f 33//19 35//20 36//20 34//19 
f 35//20 37//21 38//21 36//20 
f 37//21 39//22 40//22 38//21 
f 39//22 41//23 42//23 40//22 
f 41//23 43//24 44//24 42//23 
s 4
f 43//25 45//25 46//25 44//25 
s 2
f 45//7 47//26 48//26 46//7 
f 47//26 49//27 50//27 48//26 
f 49//27 51//28 52//28 50//27 
f 51//28 53//29 54//29 52//28 
f 53//29 55//30 56//30 54//29 
f 55//30 57//31 58//31 56//30 
f 57//31 59//32 60//32 58//31 
f 59//32 61//33 62//33 60//32 
f 61//33 63//34 64//34 62//33 
f 63//34 65//35 66//35 64//34 
f 65//35 67//36 68//36 66//35 
f 67//36 69//37 70//37 68//36 
f 69//37 71//38 72//38 70//37 
f 71//38 73//39 74//39 72//38 
f 73//39 75//40 76//40 74//39 
f 75//40 77//41 78//41 76//40 
f 77//41 79//24 80//24 78//41 
s 4
f 79//25 9//25 12//25 80//25 
s 16
f 77//42 10//42 9//42 79//42 
f 75//42 73//42 10//42 77//42 
f 43//42 41//42 47//42 45//42 
f 41//42 51//42 49//42 47//42 
f 71//42 13//42 10//42 73//42 
f 41//42 39//42 53//42 51//42 
f 71//42 17//42 15//42 13//42 
f 71//42 69//42 19//42 17//42 
f 69//42 23//42 21//42 19//42 
f 69//42 67//42 25//42 23//42 
f 65//42 63//42 25//42 67//42 
f 37//42 35//42 53//42 39//42 
f 33//42 55//42 53//42 35//42 
f 31//42 29//42 55//42 33//42 
f 27//42 57//42 55//42 29//42 
f 27//42 61//42 59//42 57//42 
f 25//42 63//42 61//42 27//42 
f 78//43 80//43 12//43 11//43 
f 76//43 78//43 11//43 74//43 
f 44//43 46//43 48//43 42//43 
f 42//43 48//43 50//43 52//43 
f 72//43 74//43 11//43 14//43 
f 42//43 52//43 54//43 40//43 
f 72//43 14//43 16//43 18//43 
f 72//43 18//43 20//43 70//43 
f 70//43 20//43 22//43 24//43 
f 70//43 24//43 26//43 68//43 
f 66//43 68//43 26//43 64//43 
f 38//43 40//43 54//43 36//43 
f 34//43 36//43 54//43 56//43 
f 32//43 34//43 56//43 30//43 
f 28//43 30//43 56//43 58//43 
f 28//43 58//43 60//43 62//43 
f 26//43 28//43 62//43 64//43 
# 70 polygons

#
# object Line002
#

v  535.6528 401.2469 -297.5492
v  535.6529 21.2469 -297.5492
v  515.6529 21.2469 -297.5492
v  515.6528 401.2469 -297.5492
v  535.6529 16.6642 -297.0204
v  515.6529 16.6642 -297.0204
v  535.6529 12.4558 -295.5146
v  515.6529 12.4558 -295.5146
v  535.6529 8.7421 -293.1523
v  515.6529 8.7421 -293.1523
v  535.6529 5.6438 -290.0540
v  515.6529 5.6438 -290.0540
v  535.6529 3.2815 -286.3403
v  515.6529 3.2815 -286.3403
v  535.6529 1.7756 -282.1319
v  515.6529 1.7756 -282.1319
v  535.6529 1.2469 -277.5492
v  515.6529 1.2469 -277.5492
v  535.6528 1.2469 282.4508
v  515.6528 1.2469 282.4508
v  535.6528 1.7756 287.0335
v  515.6528 1.7756 287.0335
v  535.6528 3.2815 291.2419
v  515.6528 3.2815 291.2419
v  535.6528 5.6438 294.9555
v  515.6528 5.6438 294.9555
v  535.6528 8.7421 298.0538
v  515.6528 8.7421 298.0538
v  535.6528 12.4558 300.4162
v  515.6528 12.4558 300.4162
v  535.6528 16.6642 301.9220
v  515.6528 16.6642 301.9220
v  535.6528 21.2469 302.4507
v  515.6528 21.2469 302.4507
v  535.6528 401.2469 302.4507
v  515.6528 401.2469 302.4507
v  535.6528 401.2469 282.4507
v  515.6528 401.2469 282.4507
v  535.6528 41.2469 282.4507
v  515.6528 41.2469 282.4507
v  535.6528 36.6642 281.9220
v  515.6528 36.6642 281.9220
v  535.6528 32.4557 280.4162
v  515.6528 32.4557 280.4162
v  535.6528 28.7421 278.0538
v  515.6528 28.7421 278.0538
v  535.6528 25.6438 274.9555
v  515.6528 25.6438 274.9555
v  535.6528 23.2815 271.2419
v  515.6528 23.2815 271.2419
v  535.6528 21.7756 267.0334
v  515.6528 21.7756 267.0334
v  535.6528 21.2469 262.4507
v  515.6528 21.2469 262.4507
v  535.6529 21.2469 -257.5492
v  515.6529 21.2469 -257.5492
v  535.6529 21.7756 -262.1319
v  515.6529 21.7756 -262.1319
v  535.6529 23.2814 -266.3404
v  515.6529 23.2814 -266.3404
v  535.6529 25.6438 -270.0540
v  515.6529 25.6438 -270.0540
v  535.6529 28.7421 -273.1523
v  515.6529 28.7421 -273.1523
v  535.6529 32.4558 -275.5146
v  515.6529 32.4558 -275.5146
v  535.6529 36.6642 -277.0205
v  515.6529 36.6642 -277.0205
v  535.6529 41.2469 -277.5492
v  515.6529 41.2469 -277.5492
v  535.6528 401.2469 -277.5492
v  515.6528 401.2469 -277.5492
# 72 vertices

vn 0.0000 0.0000 -1.0000
vn 0.0000 -0.0574 -0.9984
vn 0.0000 -0.2272 -0.9738
vn 0.0000 -0.4395 -0.8982
vn 0.0000 -0.6257 -0.7801
vn 0.0000 -0.7801 -0.6257
vn 0.0000 -0.8982 -0.4395
vn 0.0000 -0.9738 -0.2272
vn 0.0000 -0.9984 -0.0574
vn 0.0000 -0.9984 0.0574
vn 0.0000 -0.9738 0.2272
vn 0.0000 -0.8982 0.4395
vn 0.0000 -0.7801 0.6257
vn -0.0000 -0.6257 0.7801
vn -0.0000 -0.4395 0.8982
vn -0.0000 -0.2272 0.9738
vn -0.0000 -0.0574 0.9984
vn -0.0000 0.0000 1.0000
vn -0.0000 1.0000 -0.0000
vn 0.0000 0.0574 -0.9984
vn 0.0000 0.2272 -0.9738
vn 0.0000 0.4395 -0.8982
vn 0.0000 0.6257 -0.7801
vn -0.0000 0.7801 -0.6257
vn -0.0000 0.8982 -0.4395
vn -0.0000 0.9738 -0.2272
vn -0.0000 0.9984 -0.0574
vn -0.0000 0.9984 0.0574
vn -0.0000 0.9738 0.2272
vn -0.0000 0.8982 0.4395
vn -0.0000 0.7801 0.6257
vn -0.0000 0.6257 0.7801
vn -0.0000 0.4395 0.8982
vn -0.0000 0.2272 0.9738
vn -0.0000 0.0574 0.9984
vn 1.0000 0.0000 0.0000
vn -1.0000 -0.0000 -0.0000
# 37 vertex normals

g Line002
usemtl 02___Default
s 1
f 81//44 82//45 83//45 84//44 
s 3
f 82//45 85//46 86//46 83//45 
s 2
f 85//46 87//47 88//47 86//46 
f 87//47 89//48 90//48 88//47 
f 89//48 91//49 92//49 90//48 
f 91//49 93//50 94//50 92//49 
f 93//50 95//51 96//51 94//50 
f 95//51 97//52 98//52 96//51 
f 97//52 99//53 100//53 98//52 
f 99//53 101//54 102//54 100//53 
f 101//54 103//55 104//55 102//54 
f 103//55 105//56 106//56 104//55 
f 105//56 107//57 108//57 106//56 
f 107//57 109//58 110//58 108//57 
f 109//58 111//59 112//59 110//58 
f 111//59 113//60 114//60 112//59 
f 113//60 115//61 116//61 114//60 
s 4
f 115//62 117//62 118//62 116//62 
s 2
f 117//44 119//63 120//63 118//44 
f 119//63 121//64 122//64 120//63 
f 121//64 123//65 124//65 122//64 
f 123//65 125//66 126//66 124//65 
f 125//66 127//67 128//67 126//66 
f 127//67 129//68 130//68 128//67 
f 129//68 131//69 132//69 130//68 
f 131//69 133//70 134//70 132//69 
f 133//70 135//71 136//71 134//70 
f 135//71 137//72 138//72 136//71 
f 137//72 139//73 140//73 138//72 
f 139//73 141//74 142//74 140//73 
f 141//74 143//75 144//75 142//74 
f 143//75 145//76 146//76 144//75 
f 145//76 147//77 148//77 146//76 
f 147//77 149//78 150//78 148//77 
f 149//78 151//61 152//61 150//78 
s 4
f 151//62 81//62 84//62 152//62 
s 16
f 149//79 82//79 81//79 151//79 
f 147//79 145//79 82//79 149//79 
f 115//79 113//79 119//79 117//79 
f 113//79 123//79 121//79 119//79 
f 143//79 85//79 82//79 145//79 
f 113//79 111//79 125//79 123//79 
f 143//79 89//79 87//79 85//79 
f 143//79 141//79 91//79 89//79 
f 141//79 95//79 93//79 91//79 
f 141//79 139//79 97//79 95//79 
f 137//79 135//79 97//79 139//79 
f 109//79 107//79 125//79 111//79 
f 105//79 127//79 125//79 107//79 
f 103//79 101//79 127//79 105//79 
f 99//79 129//79 127//79 101//79 
f 99//79 133//79 131//79 129//79 
f 97//79 135//79 133//79 99//79 
f 150//80 152//80 84//80 83//80 
f 148//80 150//80 83//80 146//80 
f 116//80 118//80 120//80 114//80 
f 114//80 120//80 122//80 124//80 
f 144//80 146//80 83//80 86//80 
f 114//80 124//80 126//80 112//80 
f 144//80 86//80 88//80 90//80 
f 144//80 90//80 92//80 142//80 
f 142//80 92//80 94//80 96//80 
f 142//80 96//80 98//80 140//80 
f 138//80 140//80 98//80 136//80 
f 110//80 112//80 126//80 108//80 
f 106//80 108//80 126//80 128//80 
f 104//80 106//80 128//80 102//80 
f 100//80 102//80 128//80 130//80 
f 100//80 130//80 132//80 134//80 
f 98//80 100//80 134//80 136//80 
# 70 polygons

#
# object Box001
#

v  -464.3470 401.2469 302.4507
v  -464.3470 401.2469 -297.5492
v  535.6528 401.2469 -297.5492
v  535.6528 401.2469 302.4507
v  -464.3470 421.2469 302.4507
v  535.6528 421.2469 302.4507
v  535.6528 421.2469 -297.5492
v  -464.3470 421.2469 -297.5492
# 8 vertices

vn 0.0000 -1.0000 -0.0000
vn 0.0000 1.0000 -0.0000
vn 0.0000 0.0000 1.0000
vn 1.0000 0.0000 -0.0000
vn 0.0000 0.0000 -1.0000
vn -1.0000 0.0000 -0.0000
# 6 vertex normals

vt 1.0000 0.0000 0.0000
vt 1.0000 1.0000 0.0000
vt 0.0000 1.0000 0.0000
vt 0.0000 0.0000 0.0000
# 4 texture coords

g Box001
usemtl 01___Default
s 2
f 153/5/81 154/6/81 155/7/81 156/8/81 
s 4
f 157/8/82 158/5/82 159/6/82 160/7/82 
s 8
f 153/8/83 156/5/83 158/6/83 157/7/83 
s 16
f 156/8/84 155/5/84 159/6/84 158/7/84 
s 32
f 155/8/85 154/5/85 160/6/85 159/7/85 
s 64
f 154/8/86 153/5/86 157/6/86 160/7/86 
# 6 polygons

